<?xml version="1.0" encoding="UTF-8" standalone="no"?>
<!DOCTYPE svg PUBLIC "-//W3C//DTD SVG 1.1//EN" "http://www.w3.org/Graphics/SVG/1.1/DTD/svg11.dtd">
<svg width="100%" height="100%" viewBox="0 0 650 400" version="1.1" xmlns="http://www.w3.org/2000/svg" xmlns:xlink="http://www.w3.org/1999/xlink" xml:space="preserve" xmlns:serif="http://www.serif.com/" style="fill-rule:evenodd;clip-rule:evenodd;stroke-linejoin:round;stroke-miterlimit:2;">
    <g transform="matrix(1.35128,0,0,1.47412,142.93,-107.097)">
        <g transform="matrix(387.64,0,0,387.64,-18.7921,344)">
            <path d="M0.041,-0.7L0.151,-0.7L0.151,-0.405L0.291,-0.7L0.401,-0.7L0.27,-0.443L0.403,-0L0.288,-0L0.195,-0.312L0.151,-0.223L0.151,-0L0.041,-0L0.041,-0.7Z" style="fill:rgb(14,165,233);fill-rule:nonzero;"/>
        </g>
        <g transform="matrix(387.64,0,0,387.64,141.691,344)">
            <path d="M0.127,-0.6L0.012,-0.6L0.012,-0.7L0.352,-0.7L0.352,-0.6L0.237,-0.6L0.237,-0L0.127,-0L0.127,-0.6Z" style="fill:rgb(14,165,233);fill-rule:nonzero;"/>
        </g>
    </g>
    <g transform="matrix(1.10068,0,0,1.20074,-100.081,-87.1447)">
        <g transform="matrix(387.64,0,0,387.64,73.5132,344)">
            <path d="M0.271,0.159C0.171,0.158 0.121,0.107 0.121,0.008L0.121,-0.139C0.121,-0.204 0.096,-0.239 0.045,-0.242L0.045,-0.299C0.096,-0.302 0.121,-0.337 0.121,-0.404L0.121,-0.547C0.121,-0.648 0.171,-0.699 0.271,-0.7L0.271,-0.638C0.219,-0.636 0.193,-0.604 0.193,-0.541L0.193,-0.398C0.193,-0.33 0.169,-0.288 0.12,-0.272L0.12,-0.27C0.169,-0.255 0.193,-0.214 0.193,-0.145L0.193,-0.004C0.193,0.032 0.199,0.058 0.211,0.073C0.222,0.089 0.242,0.097 0.271,0.098L0.271,0.159Z" style="fill:rgb(14,165,233);fill-rule:nonzero;"/>
        </g>
    </g>
    <g transform="matrix(1.10068,0,0,1.20074,459.086,-87.1447)">
        <g transform="matrix(387.64,0,0,387.64,73.5132,344)">
            <path d="M0.258,-0.242C0.207,-0.239 0.182,-0.204 0.182,-0.139L0.182,0.008C0.182,0.107 0.132,0.158 0.032,0.159L0.032,0.098C0.061,0.097 0.081,0.089 0.093,0.073C0.104,0.058 0.11,0.032 0.11,-0.004L0.11,-0.145C0.11,-0.214 0.135,-0.255 0.183,-0.27L0.183,-0.272C0.135,-0.288 0.11,-0.33 0.11,-0.398L0.11,-0.541C0.11,-0.604 0.084,-0.636 0.032,-0.638L0.032,-0.7C0.132,-0.699 0.182,-0.648 0.182,-0.547L0.182,-0.404C0.182,-0.337 0.207,-0.302 0.258,-0.299L0.258,-0.242Z" style="fill:rgb(14,165,233);fill-rule:nonzero;"/>
        </g>
    </g>
</svg>
